<?xml version="1.0" standalone="no"?>
<!DOCTYPE svg PUBLIC "-//W3C//DTD SVG 20010904//EN"
 "http://www.w3.org/TR/2001/REC-SVG-20010904/DTD/svg10.dtd">
<svg version="1.0" xmlns="http://www.w3.org/2000/svg"
 width="500.000000pt" height="500.000000pt" viewBox="0 0 500.000000 500.000000"
 preserveAspectRatio="xMidYMid meet">
<metadata>
Created by potrace 1.14, written by Peter Selinger 2001-2017
</metadata>
<g transform="translate(0.000000,500.000000) scale(0.100000,-0.100000)"
fill="#000000" stroke="none">
<path d="M4530 3916 c-55 -15 -206 -77 -354 -144 -94 -43 -113 -56 -142 -95
-99 -137 -306 -491 -517 -887 -69 -129 -132 -247 -140 -261 -12 -22 -28 -30
-83 -42 -153 -34 -286 -40 -737 -34 -241 3 -441 8 -444 11 -9 9 414 803 485
911 126 191 287 321 420 340 29 4 58 15 67 25 22 24 15 56 -10 53 -11 -1 -73
-6 -137 -12 -64 -6 -343 -11 -620 -11 -277 0 -552 -5 -613 -10 -266 -24 -446
-112 -483 -239 -16 -52 -15 -148 2 -205 31 -101 150 -266 192 -266 44 1 47 15
12 64 -32 47 -33 50 -33 149 0 85 4 109 22 142 52 97 167 165 364 214 169 43
332 60 639 66 151 4 286 8 300 11 14 2 -1 -9 -33 -25 -31 -17 -76 -43 -100
-59 -61 -43 -195 -186 -248 -267 -25 -39 -138 -252 -249 -474 l-203 -403 -76
6 c-42 3 -148 6 -236 7 -176 2 -193 -2 -282 -63 -65 -44 -143 -118 -143 -134
0 -17 -12 -17 135 1 134 15 515 32 515 21 0 -3 -22 -45 -49 -94 -26 -48 -79
-143 -116 -212 -136 -248 -222 -368 -354 -492 -201 -189 -415 -278 -595 -249
-130 22 -232 96 -282 206 -33 70 -44 139 -44 261 0 95 -2 104 -19 104 -28 0
-31 -18 -31 -169 0 -157 13 -221 66 -321 60 -115 158 -200 289 -250 50 -19 79
-23 175 -23 104 -1 124 3 210 32 258 88 425 234 620 545 67 107 265 472 322
594 l38 82 312 0 c172 0 420 -5 550 -10 262 -11 278 -8 363 50 25 17 45 29 45
27 0 -2 -58 -123 -129 -268 -151 -310 -226 -483 -242 -558 -35 -164 44 -332
193 -411 54 -29 75 -35 149 -38 273 -13 524 129 788 447 142 171 181 229 181
267 0 41 -20 45 -45 8 -46 -71 -262 -329 -317 -379 -156 -142 -368 -245 -508
-245 -59 0 -129 35 -153 78 -48 82 -28 236 60 457 101 256 339 738 541 1100
273 487 455 767 582 897 73 74 93 89 139 102 30 9 73 16 95 16 83 0 109 23 64
54 -27 19 -104 20 -168 2z"/>
</g>
</svg>
