<?xml version="1.0" standalone="no"?>
<!DOCTYPE svg PUBLIC "-//W3C//DTD SVG 20010904//EN"
 "http://www.w3.org/TR/2001/REC-SVG-20010904/DTD/svg10.dtd">
<svg version="1.0" xmlns="http://www.w3.org/2000/svg"
 width="460.000000pt" height="460.000000pt" viewBox="0 0 460.000000 460.000000"
 preserveAspectRatio="xMidYMid meet">
<metadata>
Created by potrace 1.14, written by Peter Selinger 2001-2017
</metadata>
<g transform="translate(0.000000,460.000000) scale(0.100000,-0.100000)"
fill="#000000" stroke="none">
<path d="M2355 3669 c-5 -5 -28 -23 -50 -40 -39 -31 -41 -31 -124 -25 -89 6
-148 -4 -216 -34 -22 -9 -50 -21 -63 -24 -12 -4 -50 -30 -84 -57 -34 -27 -66
-49 -72 -49 -22 0 -134 -87 -206 -159 -132 -133 -136 -140 -226 -401 -40 -117
-43 -132 -44 -240 -2 -150 5 -334 14 -387 6 -31 11 -40 22 -36 8 3 27 0 42 -6
23 -10 30 -22 41 -69 7 -31 15 -85 17 -119 3 -37 16 -89 34 -135 16 -40 30
-84 30 -98 0 -14 4 -30 8 -37 4 -7 6 84 4 202 -3 136 -1 215 6 215 5 0 34 -5
63 -11 47 -10 75 -15 100 -18 3 -1 9 -28 12 -61 8 -77 36 -135 94 -193 67 -69
139 -100 239 -105 71 -3 88 -1 140 23 76 35 119 67 151 116 18 28 29 36 34 27
11 -18 18 -8 45 68 22 60 23 69 9 76 -22 13 -19 65 4 78 11 5 49 10 84 10 79
0 97 -14 79 -63 -13 -35 -5 -167 9 -167 5 0 9 -7 9 -15 0 -25 30 -17 31 8 0
16 4 13 14 -15 35 -95 124 -182 219 -214 35 -12 72 -15 136 -12 l88 4 -25 -65
c-14 -37 -38 -102 -54 -146 -54 -148 -106 -236 -216 -370 -141 -171 -152 -181
-239 -210 -75 -25 -87 -26 -234 -23 -139 4 -161 7 -218 31 -119 49 -297 193
-354 286 -12 20 -35 49 -50 66 -15 16 -37 49 -49 73 -26 50 -44 66 -28 25 23
-62 74 -137 153 -226 106 -119 133 -141 288 -240 123 -77 163 -88 302 -82 133
7 200 24 286 75 138 81 325 313 389 483 7 17 17 24 35 25 15 0 37 12 56 33 35
38 103 149 96 156 -2 3 -14 -14 -26 -36 -28 -56 -88 -121 -111 -121 -22 0 -23
5 -10 63 6 23 12 54 16 70 4 19 12 27 26 27 11 0 29 4 39 10 21 12 45 99 36
136 -5 20 0 32 25 57 32 32 79 119 79 147 0 13 1 13 10 0 7 -11 8 -6 4 17 -6
29 -4 31 15 26 16 -4 21 -1 21 16 0 14 -6 21 -20 21 -14 0 -20 7 -20 24 0 13
-9 53 -20 89 -18 58 -19 75 -10 134 12 75 42 172 65 207 25 38 45 118 45 181
0 87 -36 352 -56 410 -25 76 -59 135 -105 185 -22 25 -66 77 -97 115 -31 39
-66 79 -77 90 -43 42 -126 87 -187 101 -35 8 -79 26 -99 39 -19 14 -47 25 -61
25 -14 0 -68 8 -119 19 -132 26 -182 32 -194 20z m305 -1035 c-29 -77 -54
-146 -56 -154 -4 -12 4 -14 48 -12 l53 4 55 76 c30 42 61 88 68 102 16 31 37
52 30 30 -3 -8 -13 -42 -22 -75 -10 -33 -26 -78 -37 -101 -26 -56 -25 -66 9
-57 15 4 54 7 86 7 50 -1 63 2 78 20 22 27 23 13 1 -24 -14 -24 -24 -29 -77
-33 -300 -27 -300 -27 -318 -50 -22 -28 -23 -61 -2 -82 15 -14 15 -21 4 -55
l-13 -39 -39 16 c-41 16 -123 12 -142 -7 -18 -18 -25 -11 -60 58 -19 38 -47
83 -62 101 l-27 32 27 -7 c51 -12 59 -10 68 21 4 17 6 40 3 52 -5 20 -1 22 32
20 21 -1 70 0 109 1 l70 2 28 53 c15 28 50 96 77 151 28 54 52 96 55 93 3 -3
-18 -67 -46 -143z m-404 -18 c7 -93 6 -98 -12 -94 -20 4 -20 -1 -16 140 3 102
20 75 28 -46z m-451 -73 c20 -42 19 -48 -10 -67 -29 -19 -34 -40 -7 -32 9 3
35 8 57 11 l40 6 -40 -22 c-82 -44 -152 -130 -174 -215 l-11 -42 -48 4 c-26 2
-67 6 -91 10 -42 5 -43 6 -37 37 4 18 10 62 13 100 6 67 23 99 66 123 15 9 15
14 2 58 -19 61 -14 69 10 16 10 -22 23 -44 29 -49 7 -6 46 -5 99 1 97 12 98
14 73 84 -7 22 -16 57 -19 79 -6 37 -5 35 13 -15 11 -30 27 -69 35 -87z m-258
45 c-3 -8 -6 -5 -6 6 -1 11 2 17 5 13 3 -3 4 -12 1 -19z m373 -51 c0 -5 -4 -5
-10 -2 -5 3 -10 14 -10 23 0 15 2 15 10 2 5 -8 10 -19 10 -23z m210 -111 c54
-28 119 -84 144 -125 83 -135 66 -292 -43 -402 -98 -98 -208 -121 -344 -72
-96 34 -175 130 -197 237 -34 165 59 318 230 380 33 12 175 -1 210 -18z m898
-33 c5 -18 -10 -16 -34 2 -18 15 -18 15 5 13 14 -2 26 -9 29 -15z m23 -65 c1
-7 1 -18 0 -25 -1 -6 3 -14 9 -18 21 -13 1 -185 -21 -185 -6 0 -9 -6 -8 -12 4
-36 -3 -41 -20 -13 -71 115 -211 146 -337 76 -55 -32 -68 -29 -36 7 20 24 98
42 182 42 50 0 60 3 65 20 3 11 15 20 25 20 27 0 36 21 15 36 -10 7 -42 18
-72 24 -30 7 -53 14 -50 16 4 4 151 19 220 23 15 0 28 -4 28 -11z m-133 -200
c45 -28 62 -56 62 -105 0 -33 -6 -48 -27 -68 l-28 -26 28 15 c16 8 35 23 43
35 l15 21 22 -20 c19 -18 22 -34 25 -124 4 -101 3 -105 -19 -117 -15 -7 -60
-12 -115 -12 -81 0 -95 3 -135 28 -65 40 -108 84 -136 139 -27 54 -32 70 -40
136 -5 43 -3 48 36 83 51 46 85 52 48 7 -50 -58 -43 -144 14 -177 16 -10 29
-20 29 -23 0 -3 26 -5 58 -5 31 -1 49 1 39 3 -15 3 -14 6 8 24 29 23 55 68 55
97 0 33 -30 86 -59 104 l-26 17 35 -6 c19 -4 50 -15 68 -26z m321 -29 c12 -55
8 -71 -14 -62 -15 5 -21 66 -9 97 9 24 11 21 23 -35z m-481 -51 c-2 -15 -10
-23 -23 -23 -13 0 -21 8 -23 23 -3 18 1 22 23 22 22 0 26 -4 23 -22z m482 -63
c0 -14 -8 -29 -20 -35 -18 -10 -20 -8 -20 18 0 32 7 42 27 42 7 0 13 -11 13
-25z m-46 -120 c-15 -22 -31 -36 -21 -17 2 4 7 15 10 25 4 9 11 17 17 17 6 0
3 -11 -6 -25z m-107 -77 c-3 -8 -6 -5 -6 6 -1 11 2 17 5 13 3 -3 4 -12 1 -19z
m53 -59 c0 -44 -23 -99 -41 -99 -9 0 -20 -6 -22 -12 -3 -7 -5 14 -5 47 0 33 2
52 5 43 7 -26 19 -22 33 12 14 35 30 39 30 9z"/>
<path d="M1882 2255 c-75 -33 -129 -93 -119 -133 3 -13 7 -9 16 13 15 37 47
72 83 91 30 16 164 19 187 5 8 -5 -4 -7 -32 -4 -34 4 -54 1 -72 -11 -33 -21
-65 -74 -65 -105 0 -26 39 -101 52 -101 5 0 7 -4 4 -8 -4 -7 3 -9 59 -13 99
-7 158 109 100 195 l-25 36 30 -15 c63 -32 111 -142 80 -180 -11 -13 -10 -14
3 -9 21 8 36 54 29 89 -3 15 -26 49 -51 75 -75 78 -198 110 -279 75z m88 -121
c11 -12 10 -18 -3 -32 -16 -15 -18 -15 -34 0 -13 14 -14 20 -3 32 7 9 16 16
20 16 4 0 13 -7 20 -16z"/>
<path d="M2980 1795 c0 -8 5 -15 10 -15 6 0 10 7 10 15 0 8 -4 15 -10 15 -5 0
-10 -7 -10 -15z"/>
<path d="M3115 1710 c-3 -5 -1 -10 4 -10 6 0 11 5 11 10 0 6 -2 10 -4 10 -3 0
-8 -4 -11 -10z"/>
<path d="M1291 2096 c15 -15 82 -56 86 -53 7 8 -58 57 -74 57 -9 0 -14 -2 -12
-4z"/>
<path d="M1339 1891 c-15 -51 -4 -107 24 -125 22 -13 107 -31 107 -22 0 3 -18
10 -41 16 -65 18 -82 42 -77 111 2 33 3 59 2 59 -2 0 -8 -18 -15 -39z"/>
<path d="M3272 1895 c0 -16 2 -22 5 -12 2 9 2 23 0 30 -3 6 -5 -1 -5 -18z"/>
<path d="M3251 1804 c0 -11 3 -14 6 -6 3 7 2 16 -1 19 -3 4 -6 -2 -5 -13z"/>
<path d="M2526 1773 c4 -16 11 -32 17 -38 6 -7 8 -2 3 15 -3 14 -6 31 -6 38 0
6 -5 12 -10 12 -6 0 -8 -11 -4 -27z"/>
<path d="M3241 1764 c0 -11 3 -14 6 -6 3 7 2 16 -1 19 -3 4 -6 -2 -5 -13z"/>
<path d="M3226 1714 c-4 -14 -5 -28 -3 -31 3 -2 8 8 11 23 4 14 5 28 3 31 -3
2 -8 -8 -11 -23z"/>
<path d="M1486 1714 c-3 -9 -2 -23 4 -32 7 -14 9 -10 10 16 0 35 -5 41 -14 16z"/>
<path d="M2564 1695 c5 -16 -8 -28 -68 -62 -40 -24 -78 -43 -83 -43 -6 0 -32
12 -58 27 -50 27 -145 39 -145 18 0 -21 24 -35 61 -35 26 0 48 -9 75 -31 38
-30 42 -31 107 -25 81 7 102 17 122 56 19 36 19 58 -1 90 -11 19 -14 20 -10 5z"/>
<path d="M3202 1645 c-17 -37 -14 -45 4 -12 9 16 14 31 11 33 -2 2 -9 -7 -15
-21z"/>
<path d="M1490 1613 c0 -20 -6 -33 -17 -37 -10 -3 -29 -13 -43 -22 -25 -15
-24 -15 15 -8 22 4 47 7 56 8 13 0 14 7 7 40 -12 51 -18 58 -18 19z"/>
<path d="M2020 1414 c0 -5 99 -99 116 -110 18 -12 25 -12 55 3 23 12 53 17 91
16 61 -3 128 -25 128 -42 0 -14 -110 -14 -169 0 -51 11 -67 5 -25 -11 23 -9
25 -13 14 -20 -12 -8 -11 -10 5 -10 11 -1 74 -9 140 -19 118 -18 121 -18 167
1 26 11 54 28 63 38 16 17 16 21 -1 52 -44 78 -58 84 -254 94 -117 6 -330 11
-330 8z"/>
</g>
</svg>
